<svg width="1600" height="900" viewBox="0 0 1600 900" fill="none" xmlns="http://www.w3.org/2000/svg">
  <defs>
    <linearGradient id="bg2" x1="180" y1="80" x2="1430" y2="860" gradientUnits="userSpaceOnUse">
      <stop stop-color="#101D35"/>
      <stop offset="1" stop-color="#071223"/>
    </linearGradient>
    <linearGradient id="rail" x1="268" y1="0" x2="1246" y2="0" gradientUnits="userSpaceOnUse">
      <stop stop-color="#8FC8FF"/>
      <stop offset="1" stop-color="#8DFFD3"/>
    </linearGradient>
  </defs>
  <rect width="1600" height="900" fill="url(#bg2)"/>
  <rect x="120" y="110" width="1360" height="680" rx="40" fill="rgba(255,255,255,0.03)" stroke="rgba(255,255,255,0.16)"/>
  <path d="M268 706C352 636 430 575 516 524C640 452 745 430 867 346C1000 256 1128 208 1246 186" stroke="url(#rail)" stroke-width="14" stroke-linecap="round"/>
  <circle cx="516" cy="524" r="28" fill="#98D6FF"/>
  <circle cx="867" cy="346" r="28" fill="#ABBDFF"/>
  <circle cx="1188" cy="206" r="28" fill="#95FFD7"/>
  <rect x="220" y="226" width="288" height="136" rx="20" fill="rgba(255,255,255,0.05)"/>
  <rect x="570" y="430" width="322" height="136" rx="20" fill="rgba(255,255,255,0.05)"/>
  <rect x="980" y="230" width="322" height="136" rx="20" fill="rgba(255,255,255,0.05)"/>
  <rect x="228" y="626" width="1144" height="92" rx="16" fill="rgba(255,255,255,0.04)"/>
</svg>
