<svg xmlns="http://www.w3.org/2000/svg" viewBox="0 0 64 64">
  <rect width="64" height="64" rx="17" fill="#171717"/>
  <path
    d="M15 17.5h27a8.5 8.5 0 0 1 8.5 8.5v13a8.5 8.5 0 0 1-8.5 8.5H29l-9.5 8 1.8-8H15A8.5 8.5 0 0 1 6.5 39V26a8.5 8.5 0 0 1 8.5-8.5Z"
    fill="#fff"
  />
  <circle cx="19" cy="32.5" r="3" fill="#171717"/>
  <circle cx="28.5" cy="32.5" r="3" fill="#171717"/>
  <circle cx="38" cy="32.5" r="3" fill="#171717"/>
  <path
    d="M48.5 8.5c.7 4.1 2.8 6.2 6.9 6.9-4.1.7-6.2 2.8-6.9 6.9-.7-4.1-2.8-6.2-6.9-6.9 4.1-.7 6.2-2.8 6.9-6.9Z"
    fill="#82d8aa"
  />
</svg>
